<svg width="32" height="32" viewBox="0 0 32 32" fill="none" xmlns="http://www.w3.org/2000/svg">
<path d="M28.75 15.1357L15.2571 3.42499C15.1536 3.33571 15.0214 3.28571 14.8821 3.28571H11.7214C11.4571 3.28571 11.3357 3.61428 11.5357 3.78571L24.0429 14.6428H3.14286C2.98571 14.6428 2.85714 14.7714 2.85714 14.9286V17.0714C2.85714 17.2286 2.98571 17.3571 3.14286 17.3571H24.0393L11.5321 28.2143C11.3321 28.3893 11.4536 28.7143 11.7179 28.7143H14.9857C15.0536 28.7143 15.1214 28.6893 15.1714 28.6428L28.75 16.8643C28.8736 16.7568 28.9728 16.624 29.0407 16.4749C29.1086 16.3258 29.1438 16.1638 29.1438 16C29.1438 15.8361 29.1086 15.6742 29.0407 15.5251C28.9728 15.376 28.8736 15.2432 28.75 15.1357Z" fill="#fff"/>
</svg>
