<svg width="16" height="16" viewBox="0 0 16 16" fill="none" xmlns="http://www.w3.org/2000/svg">
<g clip-path="url(#clip0_32_393)">
<path d="M11.5982 9.56957C11.4036 9.46957 10.4339 8.99457 10.2536 8.93029C10.0732 8.86243 9.94109 8.83029 9.81073 9.03029C9.67859 9.2285 9.30359 9.66957 9.18573 9.8035C9.07144 9.93564 8.95537 9.95172 8.76073 9.8535C7.60359 9.27493 6.84466 8.82136 6.08216 7.51243C5.88037 7.16422 6.28394 7.18922 6.66073 6.43743C6.72501 6.30529 6.69287 6.19279 6.64287 6.09279C6.59287 5.99279 6.20001 5.02493 6.03573 4.63029C5.8768 4.24636 5.71252 4.29993 5.59287 4.29279C5.47859 4.28564 5.34823 4.28564 5.21609 4.28564C5.08394 4.28564 4.87144 4.33564 4.69109 4.53029C4.51073 4.7285 4.0018 5.20529 4.0018 6.17314C4.0018 7.141 4.70716 8.0785 4.80359 8.21064C4.90359 8.34279 6.19109 10.3285 8.16787 11.1839C9.41787 11.7231 9.90716 11.7696 10.5322 11.6767C10.9125 11.6196 11.6964 11.2017 11.8589 10.7392C12.0214 10.2785 12.0214 9.88386 11.9732 9.80172C11.925 9.71422 11.7929 9.66422 11.5982 9.56957Z" fill="#27272A"/>
<path d="M15.3785 4.9C14.9749 3.94107 14.3963 3.08036 13.6588 2.34107C12.9265 1.60607 12.0571 1.02182 11.0999 0.621429C10.1177 0.208929 9.07489 0 7.99989 0H7.96417C6.88203 0.00535714 5.83382 0.219643 4.8481 0.641071C3.8991 1.04557 3.03786 1.63085 2.31239 2.36429C1.58203 3.10179 1.00882 3.95893 0.612388 4.91429C0.201673 5.90357 -0.00546946 6.95536 -0.000112315 8.0375C0.00594706 9.27763 0.299337 10.4995 0.857031 11.6071V14.3214C0.857031 14.5393 0.943574 14.7482 1.09762 14.9023C1.25167 15.0563 1.4606 15.1429 1.67846 15.1429H4.39453C5.5022 15.7006 6.72405 15.9939 7.96417 16H8.00167C9.07132 16 10.1088 15.7929 11.0856 15.3875C12.038 14.9919 12.9041 14.4144 13.6356 13.6875C14.3731 12.9571 14.9535 12.1036 15.3588 11.1518C15.7802 10.1661 15.9945 9.11786 15.9999 8.03571C16.0052 6.94821 15.7945 5.89286 15.3785 4.9ZM12.6802 12.7214C11.4285 13.9607 9.76775 14.6429 7.99989 14.6429H7.96953C6.89275 14.6375 5.8231 14.3696 4.87846 13.8661L4.72846 13.7857H2.21417V11.2714L2.13382 11.1214C1.63025 10.1768 1.36239 9.10714 1.35703 8.03036C1.34989 6.25 2.03025 4.57857 3.27846 3.31964C4.52489 2.06071 6.19096 1.36429 7.97132 1.35714H8.00167C8.89453 1.35714 9.7606 1.53036 10.5767 1.87321C11.3731 2.20714 12.0874 2.6875 12.7017 3.30179C13.3142 3.91429 13.7963 4.63036 14.1302 5.42679C14.4767 6.25179 14.6499 7.12679 14.6463 8.03036C14.6356 9.80893 13.9374 11.475 12.6802 12.7214Z" fill="#27272A"/>
</g>
<defs>
<clipPath id="clip0_32_393">
<rect width="16" height="16" fill="white"/>
</clipPath>
</defs>
</svg>
